<svg xmlns="http://www.w3.org/2000/svg" xmlns:xlink="http://www.w3.org/1999/xlink" viewBox="0 0 180.24 180.24"><defs><style>.cls-1{stroke:#fff;stroke-miterlimit:10;fill:url(#linear-gradient);}.cls-2{fill:#fff;}</style><linearGradient id="linear-gradient" x1="0.5" y1="90.12" x2="179.74" y2="90.12" gradientUnits="userSpaceOnUse"><stop offset="0" stop-color="#f16076"/><stop offset="1" stop-color="#f89948"/></linearGradient></defs><g id="Layer_2" data-name="Layer 2"><rect class="cls-1" x="0.5" y="0.5" width="179.24" height="179.24" rx="31.11"/><path class="cls-2" d="M155.59,41.57a2.52,2.52,0,0,0-3.56,0L125.87,67.73a2.52,2.52,0,1,0,3.57,3.57l26.15-26.16A2.52,2.52,0,0,0,155.59,41.57Z" transform="translate(-10.78 -9.88)"/><path class="cls-2" d="M162.71,48.57a2.53,2.53,0,0,0-3.57,0L133,74.73a2.52,2.52,0,1,0,3.57,3.57l26.16-26.16A2.53,2.53,0,0,0,162.71,48.57Z" transform="translate(-10.78 -9.88)"/><path class="cls-2" d="M138,92.74,170.5,60.27a2.52,2.52,0,1,0-3.57-3.56L134.46,89.17a13.4,13.4,0,0,1-15.21,2.62,2.52,2.52,0,0,0-3,.6l-11,12.43h0l0,0L57.53,158.57l0,0c-.15.18-.3.35-.45.5a8.08,8.08,0,0,1-11.42-11.42c.15-.15.31-.3.5-.46l0,0L76,120.74A2.53,2.53,0,0,0,72.62,117L42.83,143.41c-.28.24-.54.47-.78.71A13.12,13.12,0,0,0,60.6,162.68c.25-.25.48-.5.72-.78L97.66,121,134,161.9q.36.42.72.78a13.12,13.12,0,1,0,18.55-18.56c-.24-.24-.49-.47-.77-.71L110.67,106.3l8.18-9.22A18.46,18.46,0,0,0,138,92.74Zm11.13,54.46,0,0,.5.46a8.08,8.08,0,1,1-11.42,11.42c-.15-.15-.3-.32-.46-.5l0,0L101,117.16l6.29-7.09Z" transform="translate(-10.78 -9.88)"/><path class="cls-2" d="M148,34.23a2.52,2.52,0,0,0-3.57,0L112,66.7a18.44,18.44,0,0,0-4.34,19.17l-10,8.87-9.6-8.52a25.37,25.37,0,0,0-4.73-29.51C75.51,48.88,66.44,43.37,57.81,41.2c-9-2.27-16.74-.75-21.76,4.27s-6.53,12.74-4.26,21.75c2.17,8.63,7.68,17.7,15.5,25.52a25.39,25.39,0,0,0,29.52,4.73l9.51,10.71a2.51,2.51,0,0,0,3.56.21l22.46-19.93a2.52,2.52,0,0,0,.6-3,13.39,13.39,0,0,1,2.61-15.22L148,37.79A2.5,2.5,0,0,0,148,34.23ZM88.41,103,79.23,92.6A2.51,2.51,0,0,0,76,92.13a20.34,20.34,0,0,1-25.16-3C43.67,82,38.64,73.75,36.68,66c-1.82-7.22-.77-13.24,2.94-17s9.74-4.75,17-2.94c7.76,2,16,7,23.18,14.18a20.34,20.34,0,0,1,2.95,25.16,2.52,2.52,0,0,0,.48,3.21l10.67,9.47Z" transform="translate(-10.78 -9.88)"/></g></svg>