<svg id="Layer_3" height="512" viewBox="0 0 64 64" width="512" xmlns="http://www.w3.org/2000/svg" data-name="Layer 3"><path d="m61 12v12a3.0135 3.0135 0 0 1 -2 2.83v24.17a3 3 0 0 1 -6 0v-24.17a3.0135 3.0135 0 0 1 -2-2.83v-12a1 1 0 0 1 2 0v7h2v-7a1 1 0 0 1 2 0v7h2v-7a1 1 0 0 1 2 0z"/><path d="m4.78 11.38a.9834.9834 0 0 0 -1.11-.32 1.0013 1.0013 0 0 0 -.67.94v38a3 3 0 0 0 6 0v-9.1a5.0168 5.0168 0 0 0 4-4.9v-1.19a37.62 37.62 0 0 0 -8.22-23.43zm2.22 38.62a1 1 0 0 1 -2 0v-9h2z"/><path d="m32 15a17 17 0 1 0 17 17 17.0242 17.0242 0 0 0 -17-17zm0 32a15 15 0 1 1 15-15 15.0183 15.0183 0 0 1 -15 15z"/><path d="m32 19a13 13 0 1 0 13 13 13.0124 13.0124 0 0 0 -13-13zm5.71 15.24-4.97 5.43a.9946.9946 0 0 1 -1.48 0l-4.97-5.43a5.1349 5.1349 0 0 1 0-6.79 4.3606 4.3606 0 0 1 3.22-1.45 4.27 4.27 0 0 1 2.49.8 4.27 4.27 0 0 1 2.49-.8 4.3606 4.3606 0 0 1 3.22 1.45 5.1349 5.1349 0 0 1 0 6.79z"/><path d="m36.23 32.89-4.23 4.63-4.23-4.63a3.093 3.093 0 0 1 0-4.09 2.3031 2.3031 0 0 1 3.49 0 1.0442 1.0442 0 0 0 1.48 0 2.3571 2.3571 0 0 1 3.49 0 3.093 3.093 0 0 1 0 4.09z"/></svg>